<svg width="56" height="35" viewBox="0 0 56 35" fill="none" xmlns="http://www.w3.org/2000/svg">
<path fill-rule="evenodd" clip-rule="evenodd" d="M4.174 2.50452C3.25191 2.50452 2.5044 3.25203 2.5044 4.17412V10.9548C5.97672 11.6172 8.60132 14.6695 8.60132 18.3348C8.60132 22 5.97672 25.0523 2.5044 25.7147V30.8258C2.5044 31.7479 3.25191 32.4954 4.174 32.4954H51.7235C52.6456 32.4954 53.3931 31.7479 53.3931 30.8258V25.6728C50.0226 24.9318 47.5003 21.9278 47.5003 18.3348C47.5003 14.7417 50.0226 11.7377 53.3931 10.9967V4.17412C53.3931 3.25203 52.6456 2.50452 51.7235 2.50452H4.174ZM55.8975 4.17412C55.8975 1.86889 54.0287 0.00012207 51.7235 0.00012207H4.174C1.86876 0.00012207 0 1.86889 0 4.17412V13.4445C0.350326 13.3669 0.714445 13.3259 1.08812 13.3259C1.4618 13.3259 1.82592 13.3669 2.17624 13.4445C4.41934 13.9414 6.09692 15.9421 6.09692 18.3348C6.09692 20.7274 4.41934 22.7281 2.17624 23.225C1.82592 23.3026 1.4618 23.3436 1.08812 23.3436C0.714445 23.3436 0.350326 23.3026 0 23.225V30.8258C0 33.131 1.86876 34.9998 4.174 34.9998H51.7235C54.0287 34.9998 55.8975 33.131 55.8975 30.8258V23.2658C55.6105 23.3169 55.3152 23.3436 55.0135 23.3436C54.7119 23.3436 54.4165 23.3169 54.1296 23.2658C51.7849 22.8483 50.0047 20.7994 50.0047 18.3348C50.0047 15.8701 51.7849 13.8212 54.1296 13.4037C54.4165 13.3526 54.7119 13.3259 55.0135 13.3259C55.3152 13.3259 55.6105 13.3526 55.8975 13.4037V4.17412Z" fill="white"/>
</svg>
