<svg xmlns="http://www.w3.org/2000/svg" width="107.19" height="89.211" viewBox="0 0 107.19 89.211">
  <g id="layer1" transform="translate(-20.702 -69.176)">
    <circle id="path10672" cx="8.807" cy="8.807" r="8.807" transform="translate(24.899 139.889)" fill="#fff" stroke="#fffaff" stroke-linejoin="bevel" stroke-width="1.767"/>
    <circle id="path10672-5" cx="11.36" cy="11.36" r="11.36" transform="translate(104.032 79.495)" fill="#fff" stroke="#fffaff" stroke-linejoin="bevel" stroke-width="2.279"/>
    <circle id="path10672-4" cx="5.453" cy="5.453" r="5.453" transform="translate(29.47 96.15)" fill="#fff" stroke="#fff" stroke-linejoin="bevel" stroke-width="1.094"/>
    <circle id="path10672-4-26" cx="5.453" cy="5.453" r="5.453" transform="translate(102.477 132.883)" fill="#fff" stroke="#fffaff" stroke-linejoin="bevel" stroke-width="1.094"/>
    <circle id="path10672-4-2" cx="5.453" cy="5.453" r="5.453" transform="translate(89.81 69.723)" fill="#fff" stroke="#fff" stroke-linejoin="bevel" stroke-width="1.094"/>
    <circle id="path10672-4-8" cx="6.816" cy="6.816" r="6.816" transform="translate(21.386 77.798)" fill="#fff" stroke="#fffaff" stroke-linejoin="bevel" stroke-width="1.367"/>
    <g id="g12077">
      <circle id="path10672-6" cx="16.537" cy="16.537" r="16.537" transform="translate(58.989 98.793)" fill="none" stroke="#fff" stroke-linejoin="bevel" stroke-width="3.318"/>
      <circle id="path11993" cx="6.384" cy="6.384" r="6.384" transform="translate(69.116 109.031)" fill="none" stroke="#fff" stroke-linejoin="bevel" stroke-width="2.231"/>
    </g>
    <path id="path12147" d="M32.063,151.127,62.174,125.8" fill="none" stroke="#fff" stroke-width="2"/>
    <path id="path12147-2" d="M29.394,84.831,59.91,109.669" fill="#fff" stroke="#fff" stroke-width="2"/>
    <path id="path12147-2-9" d="M93.912,77.717,81.958,101.983" fill="none" stroke="rgba(251,255,255,0)" stroke-width="2"/>
    <path id="path12147-2-9-4" d="M107.015,96,90.005,108.5" fill="none" stroke="#fffffd" stroke-width="2"/>
    <path id="path12147-2-9-4-2" d="M105.355,135.906,89.5,121.977" fill="none" stroke="#fbfbff" stroke-width="2"/>
    <path id="path12147-2-9-4-2-9" d="M79.664,99.375,93.729,77.837" fill="none" stroke="#fff" stroke-width="2.438"/>
    <path id="path12147-5" d="M36.109,101.424l22.169,9.78" fill="none" stroke="#fffdff" stroke-width="1.232"/>
  </g>
</svg>
